<svg xmlns="http://www.w3.org/2000/svg" viewBox="0 0 38 38"><circle fill="#FFCC4D" cx="19" cy="19" r="17"/><path fill="#F5F8FA" d="M31.8 18.5c0 3.5-2.9 6.3-6.3 6.3s-6.3-2.8-6.3-6.3 2.8-6.3 6.3-6.3 6.3 2.7 6.3 6.3M16.9 18.5c0 2.4-2.1 4.4-4.4 4.4s-4.4-2-4.4-4.4 2.1-4.4 4.4-4.4 4.4 1.9 4.4 4.4"/><path fill="#664500" d="M15 18.5c0 1.4-1.1 2.5-2.5 2.5S10 20 10 18.5s1.1-2.5 2.5-2.5 2.5 1.1 2.5 2.5M28 18.5c0 1.4-1.1 2.5-2.5 2.5S23 20 23 18.5s1.1-2.5 2.5-2.5 2.5 1.1 2.5 2.5M23 32h-8.1c-.5 0-1-.5-1-1s.5-1 1-1H23c.5 0 .9.5.9 1s-.3 1-.9 1M31 11.7c-.3 0-.6-.2-.8-.5-2.7-3.5-6-3.6-6.2-3.6-.5 0-1-.5-1-1s.5-1 1-1c.2 0 4.6 0 7.8 4.4.3.5.3 1.1-.2 1.4-.2.2-.4.3-.6.3M7 14.3c-.2 0-.5 0-.6-.2-.4-.5-.5-1.1-.2-1.4 3.3-4.4 7.6-4.4 7.8-4.4.5 0 1 .5 1 .9 0 .5-.5 1-.9 1-.2 0-3.6.2-6.2 3.6-.3.3-.6.5-.9.5"/></svg>